<?xml version="1.0" encoding="UTF-8" standalone="no"?>
<!DOCTYPE svg PUBLIC "-//W3C//DTD SVG 1.1//EN"
 "http://www.w3.org/Graphics/SVG/1.1/DTD/svg11.dtd">
<!-- Generated by graphviz version 8.1.0 (20230707.0739)
 -->
<!-- Pages: 1 -->
<svg width="486pt" height="195pt"
 viewBox="0.00 0.00 485.75 195.00" xmlns="http://www.w3.org/2000/svg" xmlns:xlink="http://www.w3.org/1999/xlink">
<g id="graph0" class="graph" transform="scale(1 1) rotate(0) translate(4 191)">
<polygon fill="white" stroke="none" points="-4,4 -4,-191 481.75,-191 481.75,4 -4,4"/>
<!-- 入力ファイル -->
<g id="node1" class="node">
<title>入力ファイル</title>
<polygon fill="none" stroke="black" points="288.88,-187 188.88,-187 188.88,-151 288.88,-151 288.88,-187"/>
<text text-anchor="middle" x="238.88" y="-163.2" font-family="Times,serif" font-size="14.00">入力ファイル</text>
</g>
<!-- 　　*
商品行 -->
<g id="node2" class="node">
<title>　　*
商品行</title>
<polygon fill="none" stroke="black" points="268.25,-115 209.5,-115 209.5,-75.5 268.25,-75.5 268.25,-115"/>
<text text-anchor="middle" x="238.88" y="-97.7" font-family="Times,serif" font-size="14.00">　　*</text>
<text text-anchor="middle" x="238.88" y="-81.2" font-family="Times,serif" font-size="14.00">商品行</text>
</g>
<!-- 入力ファイル&#45;&#45;　　*
商品行 -->
<g id="edge1" class="edge">
<title>入力ファイル&#45;&#45;　　*
商品行</title>
<path fill="none" stroke="black" d="M238.88,-150.63C238.88,-140.01 238.88,-126.42 238.88,-115.48"/>
</g>
<!-- 　　　　　　　　　　　　　○
前の行と同じ商品コードを持つ行 -->
<g id="node3" class="node">
<title>　　　　　　　　　　　　　○
前の行と同じ商品コードを持つ行</title>
<polygon fill="none" stroke="black" points="229.75,-39.5 0,-39.5 0,0 229.75,0 229.75,-39.5"/>
<text text-anchor="middle" x="114.88" y="-22.2" font-family="Times,serif" font-size="14.00">　　　　　　　　　　　　　○</text>
<text text-anchor="middle" x="114.88" y="-5.7" font-family="Times,serif" font-size="14.00">前の行と同じ商品コードを持つ行</text>
</g>
<!-- 　　*
商品行&#45;&#45;　　　　　　　　　　　　　○
前の行と同じ商品コードを持つ行 -->
<g id="edge2" class="edge">
<title>　　*
商品行&#45;&#45;　　　　　　　　　　　　　○
前の行と同じ商品コードを持つ行</title>
<path fill="none" stroke="black" d="M209.17,-76.64C190.4,-65.52 166.15,-51.14 146.94,-39.76"/>
</g>
<!-- 　　　　　　　　　　　　　○
前の行と違う商品コードを持つ行 -->
<g id="node4" class="node">
<title>　　　　　　　　　　　　　○
前の行と違う商品コードを持つ行</title>
<polygon fill="none" stroke="black" points="477.75,-39.5 248,-39.5 248,0 477.75,0 477.75,-39.5"/>
<text text-anchor="middle" x="362.88" y="-22.2" font-family="Times,serif" font-size="14.00">　　　　　　　　　　　　　○</text>
<text text-anchor="middle" x="362.88" y="-5.7" font-family="Times,serif" font-size="14.00">前の行と違う商品コードを持つ行</text>
</g>
<!-- 　　*
商品行&#45;&#45;　　　　　　　　　　　　　○
前の行と違う商品コードを持つ行 -->
<g id="edge3" class="edge">
<title>　　*
商品行&#45;&#45;　　　　　　　　　　　　　○
前の行と違う商品コードを持つ行</title>
<path fill="none" stroke="black" d="M268.58,-76.64C287.35,-65.52 311.6,-51.14 330.81,-39.76"/>
</g>
</g>
</svg>
