<?xml version="1.0" encoding="UTF-8" standalone="no"?>
<!DOCTYPE svg PUBLIC "-//W3C//DTD SVG 1.1//EN"
 "http://www.w3.org/Graphics/SVG/1.1/DTD/svg11.dtd">
<!-- Generated by graphviz version 8.1.0 (20230707.0739)
 -->
<!-- Pages: 1 -->
<svg width="152pt" height="195pt"
 viewBox="0.00 0.00 152.25 195.00" xmlns="http://www.w3.org/2000/svg" xmlns:xlink="http://www.w3.org/1999/xlink">
<g id="graph0" class="graph" transform="scale(1 1) rotate(0) translate(4 191)">
<polygon fill="white" stroke="none" points="-4,4 -4,-191 148.25,-191 148.25,4 -4,4"/>
<!-- 入力ファイル -->
<g id="node1" class="node">
<title>入力ファイル</title>
<polygon fill="none" stroke="black" points="122.12,-187 22.12,-187 22.12,-151 122.12,-151 122.12,-187"/>
<text text-anchor="middle" x="72.12" y="-163.2" font-family="Times,serif" font-size="14.00">入力ファイル</text>
</g>
<!-- 　　　　　　*
商品グループ -->
<g id="node2" class="node">
<title>　　　　　　*
商品グループ</title>
<polygon fill="none" stroke="black" points="126.25,-115 18,-115 18,-75.5 126.25,-75.5 126.25,-115"/>
<text text-anchor="middle" x="72.12" y="-97.7" font-family="Times,serif" font-size="14.00">　　　　　　*</text>
<text text-anchor="middle" x="72.12" y="-81.2" font-family="Times,serif" font-size="14.00">商品グループ</text>
</g>
<!-- 入力ファイル&#45;&#45;　　　　　　*
商品グループ -->
<g id="edge1" class="edge">
<title>入力ファイル&#45;&#45;　　　　　　*
商品グループ</title>
<path fill="none" stroke="black" d="M72.12,-150.63C72.12,-140.01 72.12,-126.42 72.12,-115.48"/>
</g>
<!-- 　　　　　　　　*
商品コードが同じ行 -->
<g id="node3" class="node">
<title>　　　　　　　　*
商品コードが同じ行</title>
<polygon fill="none" stroke="black" points="144.25,-39.5 0,-39.5 0,0 144.25,0 144.25,-39.5"/>
<text text-anchor="middle" x="72.12" y="-22.2" font-family="Times,serif" font-size="14.00">　　　　　　　　*</text>
<text text-anchor="middle" x="72.12" y="-5.7" font-family="Times,serif" font-size="14.00">商品コードが同じ行</text>
</g>
<!-- 　　　　　　*
商品グループ&#45;&#45;　　　　　　　　*
商品コードが同じ行 -->
<g id="edge2" class="edge">
<title>　　　　　　*
商品グループ&#45;&#45;　　　　　　　　*
商品コードが同じ行</title>
<path fill="none" stroke="black" d="M72.12,-75.32C72.12,-64.43 72.12,-50.79 72.12,-39.87"/>
</g>
</g>
</svg>
