<?xml version="1.0" encoding="UTF-8" standalone="no"?>
<!DOCTYPE svg PUBLIC "-//W3C//DTD SVG 1.1//EN"
 "http://www.w3.org/Graphics/SVG/1.1/DTD/svg11.dtd">
<!-- Generated by graphviz version 8.1.0 (20230707.0739)
 -->
<!-- Pages: 1 -->
<svg width="452pt" height="267pt"
 viewBox="0.00 0.00 451.50 267.00" xmlns="http://www.w3.org/2000/svg" xmlns:xlink="http://www.w3.org/1999/xlink">
<g id="graph0" class="graph" transform="scale(1 1) rotate(0) translate(4 263)">
<polygon fill="white" stroke="none" points="-4,4 -4,-263 447.5,-263 447.5,4 -4,4"/>
<!-- 出力ファイル -->
<g id="node1" class="node">
<title>出力ファイル</title>
<polygon fill="none" stroke="black" points="310.12,-259 210.12,-259 210.12,-223 310.12,-223 310.12,-259"/>
<text text-anchor="middle" x="260.12" y="-235.2" font-family="Times,serif" font-size="14.00">出力ファイル</text>
</g>
<!-- 商品グループの集合 -->
<g id="node2" class="node">
<title>商品グループの集合</title>
<polygon fill="none" stroke="black" points="241.12,-187 99.12,-187 99.12,-151 241.12,-151 241.12,-187"/>
<text text-anchor="middle" x="170.12" y="-163.2" font-family="Times,serif" font-size="14.00">商品グループの集合</text>
</g>
<!-- 出力ファイル&#45;&#45;商品グループの集合 -->
<g id="edge1" class="edge">
<title>出力ファイル&#45;&#45;商品グループの集合</title>
<path fill="none" stroke="black" d="M237.88,-222.7C224.03,-211.93 206.29,-198.12 192.43,-187.35"/>
</g>
<!-- 商品グループの価格の合計 -->
<g id="node3" class="node">
<title>商品グループの価格の合計</title>
<polygon fill="none" stroke="black" points="443.5,-187 258.75,-187 258.75,-151 443.5,-151 443.5,-187"/>
<text text-anchor="middle" x="351.12" y="-163.2" font-family="Times,serif" font-size="14.00">商品グループの価格の合計</text>
</g>
<!-- 出力ファイル&#45;&#45;商品グループの価格の合計 -->
<g id="edge2" class="edge">
<title>出力ファイル&#45;&#45;商品グループの価格の合計</title>
<path fill="none" stroke="black" d="M282.62,-222.7C296.62,-211.93 314.56,-198.12 328.57,-187.35"/>
</g>
<!-- 　　　　　*
商品グループ -->
<g id="node4" class="node">
<title>　　　　　*
商品グループ</title>
<polygon fill="none" stroke="black" points="121.75,-115 22.5,-115 22.5,-75.5 121.75,-75.5 121.75,-115"/>
<text text-anchor="middle" x="72.12" y="-97.7" font-family="Times,serif" font-size="14.00">　　　　　*</text>
<text text-anchor="middle" x="72.12" y="-81.2" font-family="Times,serif" font-size="14.00">商品グループ</text>
</g>
<!-- 商品グループの集合&#45;&#45;　　　　　*
商品グループ -->
<g id="edge3" class="edge">
<title>商品グループの集合&#45;&#45;　　　　　*
商品グループ</title>
<path fill="none" stroke="black" d="M146.4,-150.63C131.9,-140.01 113.33,-126.42 98.39,-115.48"/>
</g>
<!-- 商品グループの価格
（商品コードが同じ行の価格の合計） -->
<g id="node5" class="node">
<title>商品グループの価格
（商品コードが同じ行の価格の合計）</title>
<polygon fill="none" stroke="black" points="398.25,-114.25 140,-114.25 140,-76.25 398.25,-76.25 398.25,-114.25"/>
<text text-anchor="middle" x="269.12" y="-96.95" font-family="Times,serif" font-size="14.00">商品グループの価格</text>
<text text-anchor="middle" x="269.12" y="-81.95" font-family="Times,serif" font-size="14.00">（商品コードが同じ行の価格の合計）</text>
</g>
<!-- 商品グループの集合&#45;&#45;商品グループの価格
（商品コードが同じ行の価格の合計） -->
<g id="edge4" class="edge">
<title>商品グループの集合&#45;&#45;商品グループの価格
（商品コードが同じ行の価格の合計）</title>
<path fill="none" stroke="black" d="M194.09,-150.63C209.08,-139.77 228.38,-125.78 243.65,-114.71"/>
</g>
<!-- 　　　　　　　　*
商品コードが同じ行 -->
<g id="node6" class="node">
<title>　　　　　　　　*
商品コードが同じ行</title>
<polygon fill="none" stroke="black" points="144.25,-39.5 0,-39.5 0,0 144.25,0 144.25,-39.5"/>
<text text-anchor="middle" x="72.12" y="-22.2" font-family="Times,serif" font-size="14.00">　　　　　　　　*</text>
<text text-anchor="middle" x="72.12" y="-5.7" font-family="Times,serif" font-size="14.00">商品コードが同じ行</text>
</g>
<!-- 　　　　　*
商品グループ&#45;&#45;　　　　　　　　*
商品コードが同じ行 -->
<g id="edge5" class="edge">
<title>　　　　　*
商品グループ&#45;&#45;　　　　　　　　*
商品コードが同じ行</title>
<path fill="none" stroke="black" d="M72.12,-75.32C72.12,-64.43 72.12,-50.79 72.12,-39.87"/>
</g>
</g>
</svg>
