<?xml version="1.0" encoding="UTF-8" standalone="no"?>
<!DOCTYPE svg PUBLIC "-//W3C//DTD SVG 1.1//EN"
 "http://www.w3.org/Graphics/SVG/1.1/DTD/svg11.dtd">
<!-- Generated by graphviz version 8.1.0 (20230707.0739)
 -->
<!-- Pages: 1 -->
<svg width="152pt" height="197pt"
 viewBox="0.00 0.00 152.12 197.00" xmlns="http://www.w3.org/2000/svg" xmlns:xlink="http://www.w3.org/1999/xlink">
<g id="graph0" class="graph" transform="scale(1 1) rotate(0) translate(4 193)">
<polygon fill="white" stroke="none" points="-4,4 -4,-193 148.12,-193 148.12,4 -4,4"/>
<!-- テキスト
ファイル -->
<g id="node1" class="node">
<title>テキスト
ファイル</title>
<polygon fill="none" stroke="black" points="72.25,-189 0,-189 0,-151 72.25,-151 72.25,-189"/>
<text text-anchor="middle" x="36.12" y="-171.7" font-family="Times,serif" font-size="14.00">テキスト</text>
<text text-anchor="middle" x="36.12" y="-156.7" font-family="Times,serif" font-size="14.00">ファイル</text>
</g>
<!-- 　　*
行 -->
<g id="node2" class="node">
<title>　　*
行</title>
<polygon fill="none" stroke="black" points="63.12,-115 9.12,-115 9.12,-75.5 63.12,-75.5 63.12,-115"/>
<text text-anchor="middle" x="36.12" y="-97.7" font-family="Times,serif" font-size="14.00">　　*</text>
<text text-anchor="middle" x="36.12" y="-81.2" font-family="Times,serif" font-size="14.00">行</text>
</g>
<!-- テキスト
ファイル&#45;&#45;　　*
行 -->
<g id="edge1" class="edge">
<title>テキスト
ファイル&#45;&#45;　　*
行</title>
<path fill="none" stroke="black" d="M36.12,-150.64C36.12,-139.87 36.12,-126.27 36.12,-115.36"/>
</g>
<!-- 　　*
文字 -->
<g id="node3" class="node">
<title>　　*
文字</title>
<polygon fill="none" stroke="black" points="63.12,-39.5 9.12,-39.5 9.12,0 63.12,0 63.12,-39.5"/>
<text text-anchor="middle" x="36.12" y="-22.2" font-family="Times,serif" font-size="14.00">　　*</text>
<text text-anchor="middle" x="36.12" y="-5.7" font-family="Times,serif" font-size="14.00">文字</text>
</g>
<!-- 　　*
行&#45;&#45;　　*
文字 -->
<g id="edge2" class="edge">
<title>　　*
行&#45;&#45;　　*
文字</title>
<path fill="none" stroke="black" d="M36.12,-75.32C36.12,-64.43 36.12,-50.79 36.12,-39.87"/>
</g>
<!-- 論文 -->
<g id="node4" class="node">
<title>論文</title>
<polygon fill="none" stroke="black" points="144.12,-188 90.12,-188 90.12,-152 144.12,-152 144.12,-188"/>
<text text-anchor="middle" x="117.12" y="-164.2" font-family="Times,serif" font-size="14.00">論文</text>
</g>
<!-- 　　*
部 -->
<g id="node5" class="node">
<title>　　*
部</title>
<polygon fill="none" stroke="black" points="144.12,-115 90.12,-115 90.12,-75.5 144.12,-75.5 144.12,-115"/>
<text text-anchor="middle" x="117.12" y="-97.7" font-family="Times,serif" font-size="14.00">　　*</text>
<text text-anchor="middle" x="117.12" y="-81.2" font-family="Times,serif" font-size="14.00">部</text>
</g>
<!-- 論文&#45;&#45;　　*
部 -->
<g id="edge3" class="edge">
<title>論文&#45;&#45;　　*
部</title>
<path fill="none" stroke="black" d="M117.12,-151.76C117.12,-140.83 117.12,-126.69 117.12,-115.41"/>
</g>
<!-- 　　*
章 -->
<g id="node6" class="node">
<title>　　*
章</title>
<polygon fill="none" stroke="black" points="144.12,-39.5 90.12,-39.5 90.12,0 144.12,0 144.12,-39.5"/>
<text text-anchor="middle" x="117.12" y="-22.2" font-family="Times,serif" font-size="14.00">　　*</text>
<text text-anchor="middle" x="117.12" y="-5.7" font-family="Times,serif" font-size="14.00">章</text>
</g>
<!-- 　　*
部&#45;&#45;　　*
章 -->
<g id="edge4" class="edge">
<title>　　*
部&#45;&#45;　　*
章</title>
<path fill="none" stroke="black" d="M117.12,-75.32C117.12,-64.43 117.12,-50.79 117.12,-39.87"/>
</g>
</g>
</svg>
