<?xml version="1.0" encoding="UTF-8" standalone="no"?>
<!DOCTYPE svg PUBLIC "-//W3C//DTD SVG 1.1//EN"
 "http://www.w3.org/Graphics/SVG/1.1/DTD/svg11.dtd">
<!-- Generated by graphviz version 8.1.0 (20230707.0739)
 -->
<!-- Pages: 1 -->
<svg width="452pt" height="120pt"
 viewBox="0.00 0.00 451.75 119.50" xmlns="http://www.w3.org/2000/svg" xmlns:xlink="http://www.w3.org/1999/xlink">
<g id="graph0" class="graph" transform="scale(1 1) rotate(0) translate(4 115.5)">
<polygon fill="white" stroke="none" points="-4,4 -4,-115.5 447.75,-115.5 447.75,4 -4,4"/>
<!-- 性別 -->
<g id="node1" class="node">
<title>性別</title>
<polygon fill="none" stroke="black" points="95.38,-111.5 41.38,-111.5 41.38,-75.5 95.38,-75.5 95.38,-111.5"/>
<text text-anchor="middle" x="68.38" y="-87.7" font-family="Times,serif" font-size="14.00">性別</text>
</g>
<!-- 　　⚪︎
男 -->
<g id="node2" class="node">
<title>　　⚪︎
男</title>
<polygon fill="none" stroke="black" points="58.75,-38.75 0,-38.75 0,-0.75 58.75,-0.75 58.75,-38.75"/>
<text text-anchor="middle" x="29.38" y="-21.45" font-family="Times,serif" font-size="14.00">　　⚪︎</text>
<text text-anchor="middle" x="29.38" y="-6.45" font-family="Times,serif" font-size="14.00">男</text>
</g>
<!-- 性別&#45;&#45;　　⚪︎
男 -->
<g id="edge1" class="edge">
<title>性別&#45;&#45;　　⚪︎
男</title>
<path fill="none" stroke="black" d="M58.93,-75.13C53.03,-64.27 45.43,-50.28 39.41,-39.21"/>
</g>
<!-- 　　⚪︎
女 -->
<g id="node3" class="node">
<title>　　⚪︎
女</title>
<polygon fill="none" stroke="black" points="135.75,-38.75 77,-38.75 77,-0.75 135.75,-0.75 135.75,-38.75"/>
<text text-anchor="middle" x="106.38" y="-21.45" font-family="Times,serif" font-size="14.00">　　⚪︎</text>
<text text-anchor="middle" x="106.38" y="-6.45" font-family="Times,serif" font-size="14.00">女</text>
</g>
<!-- 性別&#45;&#45;　　⚪︎
女 -->
<g id="edge2" class="edge">
<title>性別&#45;&#45;　　⚪︎
女</title>
<path fill="none" stroke="black" d="M77.57,-75.13C83.33,-64.27 90.74,-50.28 96.6,-39.21"/>
</g>
<!-- 血液型 -->
<g id="node4" class="node">
<title>血液型</title>
<polygon fill="none" stroke="black" points="327.75,-111.5 269,-111.5 269,-75.5 327.75,-75.5 327.75,-111.5"/>
<text text-anchor="middle" x="298.38" y="-87.7" font-family="Times,serif" font-size="14.00">血液型</text>
</g>
<!-- 　　⚪︎
A -->
<g id="node5" class="node">
<title>　　⚪︎
A</title>
<polygon fill="none" stroke="black" points="212.75,-39.5 154,-39.5 154,0 212.75,0 212.75,-39.5"/>
<text text-anchor="middle" x="183.38" y="-22.2" font-family="Times,serif" font-size="14.00">　　⚪︎</text>
<text text-anchor="middle" x="183.38" y="-7.2" font-family="Times,serif" font-size="14.00">A</text>
</g>
<!-- 血液型&#45;&#45;　　⚪︎
A -->
<g id="edge3" class="edge">
<title>血液型&#45;&#45;　　⚪︎
A</title>
<path fill="none" stroke="black" d="M270.54,-75.13C253.12,-64.27 230.7,-50.28 212.97,-39.21"/>
</g>
<!-- 　　⚪︎
B -->
<g id="node6" class="node">
<title>　　⚪︎
B</title>
<polygon fill="none" stroke="black" points="289.75,-39.5 231,-39.5 231,0 289.75,0 289.75,-39.5"/>
<text text-anchor="middle" x="260.38" y="-22.2" font-family="Times,serif" font-size="14.00">　　⚪︎</text>
<text text-anchor="middle" x="260.38" y="-7.2" font-family="Times,serif" font-size="14.00">B</text>
</g>
<!-- 血液型&#45;&#45;　　⚪︎
B -->
<g id="edge4" class="edge">
<title>血液型&#45;&#45;　　⚪︎
B</title>
<path fill="none" stroke="black" d="M289.18,-75.13C283.55,-64.51 276.35,-50.92 270.56,-39.98"/>
</g>
<!-- 　　⚪︎
O -->
<g id="node7" class="node">
<title>　　⚪︎
O</title>
<polygon fill="none" stroke="black" points="366.75,-39.5 308,-39.5 308,0 366.75,0 366.75,-39.5"/>
<text text-anchor="middle" x="337.38" y="-22.2" font-family="Times,serif" font-size="14.00">　　⚪︎</text>
<text text-anchor="middle" x="337.38" y="-7.2" font-family="Times,serif" font-size="14.00">O</text>
</g>
<!-- 血液型&#45;&#45;　　⚪︎
O -->
<g id="edge5" class="edge">
<title>血液型&#45;&#45;　　⚪︎
O</title>
<path fill="none" stroke="black" d="M307.82,-75.13C313.59,-64.51 320.98,-50.92 326.92,-39.98"/>
</g>
<!-- 　　⚪︎
AB -->
<g id="node8" class="node">
<title>　　⚪︎
AB</title>
<polygon fill="none" stroke="black" points="443.75,-39.5 385,-39.5 385,0 443.75,0 443.75,-39.5"/>
<text text-anchor="middle" x="414.38" y="-22.2" font-family="Times,serif" font-size="14.00">　　⚪︎</text>
<text text-anchor="middle" x="414.38" y="-7.2" font-family="Times,serif" font-size="14.00">AB</text>
</g>
<!-- 血液型&#45;&#45;　　⚪︎
AB -->
<g id="edge6" class="edge">
<title>血液型&#45;&#45;　　⚪︎
AB</title>
<path fill="none" stroke="black" d="M326.46,-75.13C344.02,-64.27 366.63,-50.28 384.53,-39.21"/>
</g>
</g>
</svg>
