<?xml version="1.0" encoding="UTF-8" standalone="no"?>
<!DOCTYPE svg PUBLIC "-//W3C//DTD SVG 1.1//EN"
 "http://www.w3.org/Graphics/SVG/1.1/DTD/svg11.dtd">
<!-- Generated by graphviz version 8.1.0 (20230707.0739)
 -->
<!-- Pages: 1 -->
<svg width="206pt" height="121pt"
 viewBox="0.00 0.00 206.00 121.00" xmlns="http://www.w3.org/2000/svg" xmlns:xlink="http://www.w3.org/1999/xlink">
<g id="graph0" class="graph" transform="scale(1 1) rotate(0) translate(4 117)">
<polygon fill="white" stroke="none" points="-4,4 -4,-117 202,-117 202,4 -4,4"/>
<!-- A -->
<g id="node1" class="node">
<title>A</title>
<polygon fill="none" stroke="black" points="126,-113 72,-113 72,-77 126,-77 126,-113"/>
<text text-anchor="middle" x="99" y="-89.95" font-family="Times,serif" font-size="14.00">A</text>
</g>
<!-- 　　○
B -->
<g id="node2" class="node">
<title>　　○
B</title>
<polygon fill="none" stroke="black" points="54,-41 0,-41 0,0 54,0 54,-41"/>
<text text-anchor="middle" x="27" y="-23.7" font-family="Times,serif" font-size="14.00">　　○</text>
<text text-anchor="middle" x="27" y="-7.2" font-family="Times,serif" font-size="14.00">B</text>
</g>
<!-- A&#45;&#45;　　○
B -->
<g id="edge1" class="edge">
<title>A&#45;&#45;　　○
B</title>
<path fill="none" stroke="black" d="M81.94,-76.82C71.37,-66.18 57.77,-52.49 46.74,-41.38"/>
</g>
<!-- 　　○
C -->
<g id="node3" class="node">
<title>　　○
C</title>
<polygon fill="none" stroke="black" points="126,-41 72,-41 72,0 126,0 126,-41"/>
<text text-anchor="middle" x="99" y="-23.7" font-family="Times,serif" font-size="14.00">　　○</text>
<text text-anchor="middle" x="99" y="-7.2" font-family="Times,serif" font-size="14.00">C</text>
</g>
<!-- A&#45;&#45;　　○
C -->
<g id="edge2" class="edge">
<title>A&#45;&#45;　　○
C</title>
<path fill="none" stroke="black" d="M99,-76.82C99,-66.18 99,-52.49 99,-41.38"/>
</g>
<!-- 　　○
D -->
<g id="node4" class="node">
<title>　　○
D</title>
<polygon fill="none" stroke="black" points="198,-41 144,-41 144,0 198,0 198,-41"/>
<text text-anchor="middle" x="171" y="-23.7" font-family="Times,serif" font-size="14.00">　　○</text>
<text text-anchor="middle" x="171" y="-7.2" font-family="Times,serif" font-size="14.00">D</text>
</g>
<!-- A&#45;&#45;　　○
D -->
<g id="edge3" class="edge">
<title>A&#45;&#45;　　○
D</title>
<path fill="none" stroke="black" d="M116.06,-76.82C126.63,-66.18 140.23,-52.49 151.26,-41.38"/>
</g>
</g>
</svg>
