<?xml version="1.0" encoding="UTF-8" standalone="no"?>
<!DOCTYPE svg PUBLIC "-//W3C//DTD SVG 1.1//EN"
 "http://www.w3.org/Graphics/SVG/1.1/DTD/svg11.dtd">
<!-- Generated by graphviz version 8.1.0 (20230707.0739)
 -->
<!-- Pages: 1 -->
<svg width="350pt" height="116pt"
 viewBox="0.00 0.00 350.00 116.00" xmlns="http://www.w3.org/2000/svg" xmlns:xlink="http://www.w3.org/1999/xlink">
<g id="graph0" class="graph" transform="scale(1 1) rotate(0) translate(4 112)">
<polygon fill="white" stroke="none" points="-4,4 -4,-112 346,-112 346,4 -4,4"/>
<!-- 名前 -->
<g id="node1" class="node">
<title>名前</title>
<polygon fill="none" stroke="black" points="90,-108 36,-108 36,-72 90,-72 90,-108"/>
<text text-anchor="middle" x="63" y="-84.2" font-family="Times,serif" font-size="14.00">名前</text>
</g>
<!-- 性 -->
<g id="node2" class="node">
<title>性</title>
<polygon fill="none" stroke="black" points="54,-36 0,-36 0,0 54,0 54,-36"/>
<text text-anchor="middle" x="27" y="-12.2" font-family="Times,serif" font-size="14.00">性</text>
</g>
<!-- 名前&#45;&#45;性 -->
<g id="edge1" class="edge">
<title>名前&#45;&#45;性</title>
<path fill="none" stroke="black" d="M54.1,-71.7C48.52,-60.85 41.36,-46.92 35.8,-36.1"/>
</g>
<!-- 名 -->
<g id="node3" class="node">
<title>名</title>
<polygon fill="none" stroke="black" points="126,-36 72,-36 72,0 126,0 126,-36"/>
<text text-anchor="middle" x="99" y="-12.2" font-family="Times,serif" font-size="14.00">名</text>
</g>
<!-- 名前&#45;&#45;名 -->
<g id="edge2" class="edge">
<title>名前&#45;&#45;名</title>
<path fill="none" stroke="black" d="M71.9,-71.7C77.48,-60.85 84.64,-46.92 90.2,-36.1"/>
</g>
<!-- 年月日 -->
<g id="node4" class="node">
<title>年月日</title>
<polygon fill="none" stroke="black" points="272.38,-108 213.62,-108 213.62,-72 272.38,-72 272.38,-108"/>
<text text-anchor="middle" x="243" y="-84.2" font-family="Times,serif" font-size="14.00">年月日</text>
</g>
<!-- 年 -->
<g id="node5" class="node">
<title>年</title>
<polygon fill="none" stroke="black" points="198,-36 144,-36 144,0 198,0 198,-36"/>
<text text-anchor="middle" x="171" y="-12.2" font-family="Times,serif" font-size="14.00">年</text>
</g>
<!-- 年月日&#45;&#45;年 -->
<g id="edge3" class="edge">
<title>年月日&#45;&#45;年</title>
<path fill="none" stroke="black" d="M225.2,-71.7C214.13,-60.93 199.93,-47.12 188.84,-36.35"/>
</g>
<!-- 月 -->
<g id="node6" class="node">
<title>月</title>
<polygon fill="none" stroke="black" points="270,-36 216,-36 216,0 270,0 270,-36"/>
<text text-anchor="middle" x="243" y="-12.2" font-family="Times,serif" font-size="14.00">月</text>
</g>
<!-- 年月日&#45;&#45;月 -->
<g id="edge4" class="edge">
<title>年月日&#45;&#45;月</title>
<path fill="none" stroke="black" d="M243,-71.7C243,-60.85 243,-46.92 243,-36.1"/>
</g>
<!-- 日 -->
<g id="node7" class="node">
<title>日</title>
<polygon fill="none" stroke="black" points="342,-36 288,-36 288,0 342,0 342,-36"/>
<text text-anchor="middle" x="315" y="-12.2" font-family="Times,serif" font-size="14.00">日</text>
</g>
<!-- 年月日&#45;&#45;日 -->
<g id="edge5" class="edge">
<title>年月日&#45;&#45;日</title>
<path fill="none" stroke="black" d="M260.8,-71.7C271.87,-60.93 286.07,-47.12 297.16,-36.35"/>
</g>
</g>
</svg>
