<?xml version="1.0" encoding="UTF-8" standalone="no"?>
<!DOCTYPE svg PUBLIC "-//W3C//DTD SVG 1.1//EN"
 "http://www.w3.org/Graphics/SVG/1.1/DTD/svg11.dtd">
<!-- Generated by graphviz version 8.1.0 (20230707.0739)
 -->
<!-- Pages: 1 -->
<svg width="206pt" height="116pt"
 viewBox="0.00 0.00 206.00 116.00" xmlns="http://www.w3.org/2000/svg" xmlns:xlink="http://www.w3.org/1999/xlink">
<g id="graph0" class="graph" transform="scale(1 1) rotate(0) translate(4 112)">
<polygon fill="white" stroke="none" points="-4,4 -4,-112 202,-112 202,4 -4,4"/>
<!-- A -->
<g id="node1" class="node">
<title>A</title>
<polygon fill="none" stroke="black" points="126,-108 72,-108 72,-72 126,-72 126,-108"/>
<text text-anchor="middle" x="99" y="-84.95" font-family="Times,serif" font-size="14.00">A</text>
</g>
<!-- B -->
<g id="node2" class="node">
<title>B</title>
<polygon fill="none" stroke="black" points="54,-36 0,-36 0,0 54,0 54,-36"/>
<text text-anchor="middle" x="27" y="-12.95" font-family="Times,serif" font-size="14.00">B</text>
</g>
<!-- A&#45;&#45;B -->
<g id="edge1" class="edge">
<title>A&#45;&#45;B</title>
<path fill="none" stroke="black" d="M81.2,-71.7C70.13,-60.93 55.93,-47.12 44.84,-36.35"/>
</g>
<!-- C -->
<g id="node3" class="node">
<title>C</title>
<polygon fill="none" stroke="black" points="126,-36 72,-36 72,0 126,0 126,-36"/>
<text text-anchor="middle" x="99" y="-12.95" font-family="Times,serif" font-size="14.00">C</text>
</g>
<!-- A&#45;&#45;C -->
<g id="edge2" class="edge">
<title>A&#45;&#45;C</title>
<path fill="none" stroke="black" d="M99,-71.7C99,-60.85 99,-46.92 99,-36.1"/>
</g>
<!-- D -->
<g id="node4" class="node">
<title>D</title>
<polygon fill="none" stroke="black" points="198,-36 144,-36 144,0 198,0 198,-36"/>
<text text-anchor="middle" x="171" y="-12.95" font-family="Times,serif" font-size="14.00">D</text>
</g>
<!-- A&#45;&#45;D -->
<g id="edge3" class="edge">
<title>A&#45;&#45;D</title>
<path fill="none" stroke="black" d="M116.8,-71.7C127.87,-60.93 142.07,-47.12 153.16,-36.35"/>
</g>
</g>
</svg>
